<svg width="109" height="129" viewBox="0 0 109 129" fill="none" xmlns="http://www.w3.org/2000/svg">
<path d="M105.815 20.8885L56.4322 0.385266C55.1951 -0.128215 53.8046 -0.128467 52.5678 0.385266L3.18496 20.8885C1.30413 21.6695 0.078125 23.5057 0.078125 25.5423V50.4667C0.078125 84.786 20.8212 115.657 52.5957 128.626C53.8162 129.124 55.1836 129.124 56.4043 128.626C88.1783 115.657 108.922 84.7863 108.922 50.4667V25.5423C108.922 23.5057 107.696 21.6695 105.815 20.8885ZM98.8438 50.4667C98.8438 79.6416 81.7109 106.499 54.5 118.488C28.0162 106.819 10.1562 80.4323 10.1562 50.4667V28.9064L54.5 10.4951L98.8438 28.9064V50.4667ZM48.9303 67.4519L70.5892 45.7933C72.557 43.8255 75.7475 43.8253 77.7155 45.7933C79.6835 47.7613 79.6832 50.9517 77.7152 52.9195L52.4934 78.1413C50.5252 80.1095 47.3347 80.1088 45.3672 78.1413L31.2845 64.0586C29.3165 62.0906 29.3165 58.9001 31.2845 56.9324C33.2525 54.9646 36.443 54.9644 38.4108 56.9324L48.9303 67.4519Z" fill="url(#paint0_linear_4064_3943)"/>
<defs>
<linearGradient id="paint0_linear_4064_3943" x1="0.078125" y1="64.5" x2="108.922" y2="64.5" gradientUnits="userSpaceOnUse">
<stop stop-color="#157FCC"/>
<stop offset="1" stop-color="#157FCC" stop-opacity="0.4"/>
</linearGradient>
</defs>
</svg>
